<svg xmlns="http://www.w3.org/2000/svg" width="1200" height="1200" viewBox="0 0 1200 1200" role="img" aria-label="Fine line rose and crescent moon tattoo linework">
  <rect width="1200" height="1200" fill="#fffdf8"/>
  <g fill="none" stroke="#1d1d1f" stroke-width="4" stroke-linecap="round" stroke-linejoin="round">
    <path d="M525 317c-56 39-91 99-91 166 0 132 107 239 239 239 48 0 93-14 131-38-35 57-98 95-170 95-110 0-200-90-200-200 0-115 77-215 91-262z"/>
    <path d="M600 430c47-40 117-20 132 38 15 59-36 108-132 156-96-48-147-97-132-156 15-58 85-78 132-38z"/>
    <path d="M600 446c-26 3-50 20-60 45 25-15 62-24 105-18-24-20-39-28-45-27z"/>
    <path d="M542 501c44-27 93-30 146-7"/>
    <path d="M531 536c42-23 89-26 139-8"/>
    <path d="M546 571c37-19 76-20 118-5"/>
    <path d="M600 625c-10 90-12 167-8 244"/>
    <path d="M588 710c-46-57-93-82-142-74 26 47 72 73 142 74z"/>
    <path d="M599 755c56-55 108-77 158-65-34 50-84 71-158 65z"/>
    <path d="M593 806c-47-46-92-65-137-55 29 42 73 60 137 55z"/>
    <path d="M603 844c43-37 86-51 129-41-28 34-70 47-129 41z"/>
    <path d="M594 879c-26 17-52 22-78 15"/>
  </g>
  <g fill="#1d1d1f">
    <circle cx="596" cy="237" r="3"/>
    <circle cx="596" cy="272" r="2.5"/>
    <circle cx="596" cy="306" r="3"/>
    <path d="M596 252l5 12 12 5-12 5-5 12-5-12-12-5 12-5z"/>
    <circle cx="597" cy="910" r="3"/>
    <circle cx="597" cy="944" r="2.5"/>
    <circle cx="597" cy="978" r="3"/>
    <path d="M597 925l5 12 12 5-12 5-5 12-5-12-12-5 12-5z"/>
  </g>
</svg>
